<svg xmlns="http://www.w3.org/2000/svg" viewBox="0 0 393.96 483.08"><defs><style>.cls-1{fill:#eb2227;}.cls-2{fill:#d81f29;}.cls-3{fill:#ef4137;}.cls-4{fill:#fcee1f;}.cls-5{fill:#d33c2d;}.cls-6{fill:#dfd524;}.cls-7{fill:#4477bc;}.cls-8{fill:#3c68a1;}.cls-9{fill:#a7a9ac;}.cls-10{fill:#d0d2d3;}.cls-11{fill:#e6e7e7;}</style></defs><title>rocket</title><g id="Layer_2" data-name="Layer 2"><g id="Layer_1-2" data-name="Layer 1"><path class="cls-1" d="M86.59,260.08l46-59.6A99.1,99.1,0,0,0,.89,306.88,100.33,100.33,0,0,1,15.29,281C36.29,254,58.39,247.28,86.59,260.08Z"/><path class="cls-2" d="M213.49,358.08l46-59.6a99.22,99.22,0,0,1-69.8,154.3,98.73,98.73,0,0,0,21.4-20.5C232.09,405.28,233,382.18,213.49,358.08Z"/><polygon class="cls-3" points="16.69 483.08 190.09 364.28 87.99 285.38 16.69 483.08"/><polygon class="cls-4" points="64.49 421.28 170.09 348.88 107.99 300.78 64.49 421.28"/><polygon class="cls-5" points="190.09 364.28 87.99 285.38 68.69 339.08 157.39 386.68 190.09 364.28"/><polygon class="cls-6" points="170.09 348.88 107.99 300.78 89.99 350.48 133.59 373.88 170.09 348.88"/><path class="cls-7" d="M290.19,299.28c-59.6,77.1-120.3,79.5-165.7,44.4s-58.4-94.4,1.2-171.5,236.5-190,262.7-169.8C411.89,20.48,349.79,222.08,290.19,299.28Z"/><path class="cls-8" d="M388.29,2.28a8.64,8.64,0,0,0-1.6-1c-4.8,62.3-54.6,206.2-102.9,268.6-59.6,77.1-120.3,79.5-165.7,44.4-14.7-11.3-25.9-25.2-32.5-41.4,1.3,29.2,15.9,53,38.8,70.7,45.4,35.1,106.1,32.8,165.7-44.4S411.89,20.48,388.29,2.28Z"/><circle class="cls-1" cx="234.09" cy="201.88" r="68.5"/><path class="cls-2" d="M295.69,171.88a68.45,68.45,0,0,1-109,67.7,69.09,69.09,0,0,1-19.7-24.2,68.55,68.55,0,0,0,121.4,28.4A68.9,68.9,0,0,0,295.69,171.88Z"/><path class="cls-1" d="M281.39,43.88l93.6,72.3c17.2-56.9,24.8-105.1,13.9-113.6C376.69-6.72,331.89,12.68,281.39,43.88Z"/><path class="cls-2" d="M388.79,2.68c-1.9-1.5-4.6-2.2-7.9-2.4,4.6,17-3.1,58.8-17.7,106.9l11.7,9.1C392.19,59.28,399.79,11.08,388.79,2.68Z"/><circle class="cls-9" cx="234.09" cy="201.88" r="54"/><circle class="cls-10" cx="236.09" cy="232.98" r="15.8"/><circle class="cls-11" cx="232.09" cy="166.98" r="7.7"/></g></g></svg>