<svg xmlns="http://www.w3.org/2000/svg" viewBox="0 0 509 526.2"><defs><style>.cls-1{fill:#a7a9ac;}.cls-2{fill:#808285;}</style></defs><title>rocket_bg</title><g id="Layer_2" data-name="Layer 2"><g id="Layer_1-2" data-name="Layer 1"><path class="cls-1" d="M458,352.9a43.5,43.5,0,0,1,0,87c-22.5,0-43.7-19-43.5-42.2a11.11,11.11,0,0,0-.7-5.1c-.4-.8-1.1-1.5-1.4-2.3a6.91,6.91,0,0,1,0-3.5,76.73,76.73,0,0,1,7.1-19.6,7.22,7.22,0,0,1,1.8-2.4c1.1-.7,2.4-.6,3.7-.7a11.23,11.23,0,0,0,7.3-3.5,26.51,26.51,0,0,1,3.3-3.4,12.23,12.23,0,0,1,3.6-1.4C445.8,354.4,451.5,352.9,458,352.9Z"/><path class="cls-2" d="M483.2,361.3c0,.2,6.3,5.1,6.9,5.7a39.52,39.52,0,0,1,6.1,8.6A43.57,43.57,0,0,1,458,440a43.06,43.06,0,0,1-15.5-2.9c-3.4-1.3-10.2-3.5-11.4-7.3,3.5.4,7,.7,10.6,1.1,2.4.2,5.2.3,6.5-1.7a9.51,9.51,0,0,0-1.5-2c3.3-1.1,6.9-1.1,10.3-1.7,6.6-1.3,12.5-5,18.1-8.6,2.1-1.4,4.5-3.1,4.6-5.7s-2.1-4.3-4.1-5.8c6.9.3,13.3-6.2,12.9-13.1-.1-1.9-.7-3.7-.7-5.6-.1-4.3,2.3-8.5,1.3-12.6C488.1,369.4,483,366,483.2,361.3Z"/><path class="cls-2" d="M425.7,408.4a9.88,9.88,0,0,0,6.8,5.3,12.8,12.8,0,0,0,8.6-1.4,9.92,9.92,0,0,0,3.9-3.7,12.22,12.22,0,0,0,1.4-5.6,20.8,20.8,0,0,0-.6-8.6,10.34,10.34,0,0,0-5.4-6.5,9.88,9.88,0,0,0-10,1.8C425.6,393.8,422.9,402.5,425.7,408.4Z"/><path class="cls-2" d="M464.5,369.7a7.47,7.47,0,0,0-4,5,9,9,0,0,0,1,6.4,8.38,8.38,0,0,0,2.7,2.9,10.07,10.07,0,0,0,4.2,1.1,17.32,17.32,0,0,0,6.4-.4,7.55,7.55,0,0,0,4.8-3.9,7.38,7.38,0,0,0-1.2-7.4C475.4,369.7,468.9,367.6,464.5,369.7Z"/><polygon points="35 0 39.4 36.3 51.5 30.6 45.8 42.6 69.9 47.1 45.8 51.6 51.5 63.6 39.4 57.9 35 146 30.5 57.9 18.4 63.6 24.2 51.6 0 47.1 24.2 42.6 18.4 30.6 30.5 36.3 35 0"/><polygon points="490.4 215.8 493.1 231.6 509 234.4 493.1 237.1 490.4 253 487.6 237.1 471.8 234.4 487.6 231.6 490.4 215.8"/><polygon points="213.2 504.2 214.9 513.6 224.2 515.2 214.9 516.9 213.2 526.2 211.6 516.9 202.3 515.2 211.6 513.6 213.2 504.2"/></g></g></svg>